<?xml version="1.0" encoding="UTF-8"?>
<svg width="248px" height="149px" viewBox="0 0 248 149" version="1.1" xmlns="http://www.w3.org/2000/svg" xmlns:xlink="http://www.w3.org/1999/xlink">
    <!-- Generator: Sketch 51.2 (57519) - http://www.bohemiancoding.com/sketch -->
    <title>领养插图</title>
    <desc>Created with Sketch.</desc>
    <defs>
        <linearGradient x1="50%" y1="290.703785%" x2="50%" y2="3.061617e-15%" id="linearGradient-1">
            <stop stop-color="#E8FF9A" offset="0%"></stop>
            <stop stop-color="#B6E251" offset="100%"></stop>
        </linearGradient>
        <linearGradient x1="50%" y1="129.347544%" x2="50%" y2="5.01692297%" id="linearGradient-2">
            <stop stop-color="#704301" offset="0%"></stop>
            <stop stop-color="#C26D20" offset="100%"></stop>
        </linearGradient>
        <linearGradient x1="50%" y1="5.01692297%" x2="50%" y2="92.7043403%" id="linearGradient-3">
            <stop stop-color="#FBB354" offset="0%"></stop>
            <stop stop-color="#C26D20" offset="100%"></stop>
        </linearGradient>
        <path d="M93.9743321,67.2579758 C92.265836,72.4045772 91.2543945,79.1496679 92.7890625,84.5080663 C93.4962076,86.9771118 94.7715746,89.0452203 96.6151637,90.7123917 L96.6151662,90.7123889 C98.3816962,92.3098753 99.3445832,94.6113974 99.2419061,96.9909033 L98.5795898,112.339844 C92.2563477,112.722656 89.0947266,112.495117 89.0947266,111.657227 C89.0947266,110.400391 89.3862305,108.858398 91.7949219,107.98291 C94.2036133,107.107422 92.7890625,100.095703 92.7890625,98.3583984 C92.7890625,96.6210938 87.6621094,91.2436523 81.0112305,86.7915039 C74.3603516,82.3393555 72.4873047,66.2568359 68.8349609,64.9995117 C65.1826172,63.7421875 50.8032924,66.219911 46.9171317,67.7479298 C43.030971,69.2759487 38.3691406,69.9924401 36.7646484,72.1977539 C35.8763721,73.4186562 31.2392578,78.722168 31.2392578,83.8061523 C31.2392578,88.8901367 31.6474965,92.4116315 31.2392578,96.5722656 C30.324707,105.893066 28.8022461,109.374023 25.8808594,110.865234 C22.9594727,112.356445 15.7548828,113.604004 15.7548828,111.673828 C15.7548828,109.743652 18.6083984,108.184082 21.7753906,106.589844 C24.9423828,104.995605 22.5493164,68.7546487 21.9072266,67.7479298 C21.2651367,66.7412109 13.2543945,59.7182617 12.2524414,50.9208984 C11.2504883,42.1235352 14.5039062,27.6083984 12.2524414,22.1577148 C10.806115,18.6562311 6.13305594,17.8918065 3.32122015,16.5881244 C3.32122015,15.6809816 3.50182005,14.4837995 3.02043917,14.0709791 C2.12855909,13.3061248 1.3837314,12.4355978 0.908691406,11.3496094 C-1.1366763,6.67369629 0.908691406,4.17773438 0.908691406,4.17773438 C0.908691406,4.17773438 4.65753495,5.92520249 8.2441077,5.47396727 C11.8306804,5.02273205 16.5884451,-1.6819662 23.8959961,0.758789063 C31.2035471,3.19954433 31.8984375,8.75146484 31.2392578,15.4545898 C30.5800781,22.1577148 28.6611328,38.0561523 55.1606445,39.640625 C81.6601562,41.2250977 87.5791016,38.5136719 93.5029297,42.4194336 C95.8062211,43.9380643 98.0567787,47.1271831 98.0567787,51.3244252 C98.0567787,57.2784753 95.0185341,64.112466 93.9743321,67.2579758 Z" id="path-4"></path>
        <linearGradient x1="48.1380039%" y1="50%" x2="51.9814928%" y2="74.9177082%" id="linearGradient-6">
            <stop stop-color="#DC9338" offset="0%"></stop>
            <stop stop-color="#EEA348" offset="100%"></stop>
        </linearGradient>
        <linearGradient x1="-48.5430587%" y1="11.9113605%" x2="100%" y2="50%" id="linearGradient-7">
            <stop stop-color="#846A54" offset="0%"></stop>
            <stop stop-color="#DFA058" offset="100%"></stop>
        </linearGradient>
        <linearGradient x1="25.7928352%" y1="69.2878586%" x2="85.1120877%" y2="86.3984909%" id="linearGradient-8">
            <stop stop-color="#FFFFFF" offset="0%"></stop>
            <stop stop-color="#E3E5E5" offset="100%"></stop>
        </linearGradient>
        <linearGradient x1="81.9426568%" y1="50%" x2="0%" y2="50%" id="linearGradient-9">
            <stop stop-color="#6D4325" offset="0%"></stop>
            <stop stop-color="#3B2010" offset="100%"></stop>
        </linearGradient>
        <path d="M11.8421875,0.81015625 C11.9348958,8.39479167 15.3674479,15.2588542 22.1398437,21.4023438 C28.9122396,27.5458333 33.078776,31.9535156 34.6394531,34.6253906 C24.1220987,31.4669194 17.6230519,29.5165784 15.1423128,28.7743674 C14.6425548,28.6248451 14.4675988,29.670856 14.0680546,29.5515292 C13.0673235,29.2526537 11.1039718,28.383705 10.0591068,28.1136184 C9.0137131,27.8433951 6.91627381,27.2842935 3.76678893,26.4363137 L3.76679412,26.4362945 C2.7001973,26.1491197 1.60274861,26.7809662 1.31557386,27.847563 C1.30216707,27.8973572 1.29069109,27.9476513 1.28117166,27.9983325 C0.773448479,30.7014399 0.42490673,32.5779514 0.235546417,33.6278672 C0.112683222,34.309087 1.07031702,35.2386656 0.9703125,35.8798828 C0.19680713,40.839508 0.259737629,43.5964844 0.9703125,47.1046875 C1.68088737,50.6128906 3.6703125,54.4054688 7.75625,55.8679688 C11.8421875,57.3304688 14.5523437,52.7976563 13.1972656,50.6128906 C11.8421875,48.428125 8.81875,49.334375 8.81875,47.6960938 C8.81875,46.0578125 10.534375,38.2551693 11.8421875,38.2551693 C12.079218,38.2551693 12.7247648,38.3241485 13.6690735,38.4676381 C13.9816964,38.5151418 14.291781,39.6832284 14.6659106,39.7472656 C19.3969737,40.5570496 28.76265,41.5923954 34.6394531,45.4839844 C42.3847656,50.6128906 51.6617187,52.9914062 56.7699219,51.5 C61.878125,50.0085938 60.778125,39.2472656 55.5222656,32.5429687 C52.0183594,28.0734375 49.6441074,24.0291667 48.3995096,20.4101562 C51.0074243,20.6423659 53.5794628,20.6423659 56.115625,20.4101562 C58.6517872,20.1779466 61.166631,19.7814622 63.6601562,19.2207031 L66.4829269,41.3997182 L67.5902344,41.3997182 C67.5902344,43.73476 67.5902344,45.0961821 67.5902344,45.4839844 C67.5902344,47.236063 67.5902344,49.0109109 67.5902344,50.808528 L67.590236,50.808528 C67.590236,52.3708586 68.7892933,53.6716519 70.3464574,53.7986054 C73.5743941,54.0617747 77.3060437,54.1933594 81.5414062,54.1933594 C89.7910156,54.1933594 93.4527344,53.7453125 93.4527344,52.6226563 C93.4527344,52.1247303 93.4527344,51.2312242 93.4527344,49.942138 L93.4527248,49.942138 C93.4527248,48.8375738 92.5572986,47.9421476 91.4527344,47.9421476 C91.3918056,47.9421476 91.3309086,47.9449318 91.2702339,47.9504916 C87.4504932,48.3005058 84.5705715,48.0185711 82.6304687,47.1046875 C80.8398495,46.261218 79.0010587,46.4970659 77.4244141,44.0863281 C77.3453526,43.9654407 77.22411,43.0699041 77.0606862,41.3997182 L77.7676506,41.0338331 L76.587718,11.4059137 C76.5057304,9.34720815 75.3731718,7.4745569 73.5879767,6.44593224 C71.4993234,5.24245582 69.0802104,4.22871157 66.3306378,3.40469949 C62.209163,2.16954571 56.4139244,1.05938546 48.9449219,0.07421875 C43.999639,2.20876492 38.2922172,3.42738471 31.8226562,3.73007813 C25.3530953,4.03277154 18.6929391,3.05946425 11.8421875,0.81015625 Z" id="path-10"></path>
        <linearGradient x1="100%" y1="50%" x2="-2.22044605e-14%" y2="50%" id="linearGradient-12">
            <stop stop-color="#00CAEF" offset="0%"></stop>
            <stop stop-color="#009ADB" offset="100%"></stop>
        </linearGradient>
        <linearGradient x1="50%" y1="0%" x2="50%" y2="100%" id="linearGradient-13">
            <stop stop-color="#DD8E39" offset="0%"></stop>
            <stop stop-color="#883E09" offset="100%"></stop>
        </linearGradient>
        <linearGradient x1="-23.6643254%" y1="86.1846806%" x2="94.5839662%" y2="50%" id="linearGradient-14">
            <stop stop-color="#AE6318" offset="0%"></stop>
            <stop stop-color="#DC8D38" offset="100%"></stop>
        </linearGradient>
        <linearGradient x1="50%" y1="0%" x2="50%" y2="100%" id="linearGradient-15">
            <stop stop-color="#009ED9" offset="0%"></stop>
            <stop stop-color="#18AFE3" offset="100%"></stop>
        </linearGradient>
    </defs>
    <g id="Page-2" stroke="none" stroke-width="1" fill="none" fill-rule="evenodd" opacity="0.901373">
        <g id="暂无领养" transform="translate(-64.000000, -200.000000)">
            <g id="领养插图" transform="translate(64.000000, 200.000000)">
                <ellipse id="Oval-8" fill="url(#linearGradient-1)" cx="125" cy="141" rx="123" ry="8"></ellipse>
                <g id="Group-5" transform="translate(29.000000, 0.000000)">
                    <path d="M63.3593804,20.3590873 C62.7925803,23.704453 62.1251376,26.6093034 61.3570524,29.0736388 C60.2049245,32.7701418 56.9152902,34.9134288 52.8697249,34.9134288 C50.1726814,34.9134288 49.2596352,34.9134288 50.1305864,34.9134288 L46.0525605,44.8232407 C53.3074238,49.0339251 58.4089211,51.5378356 61.3570524,52.3349724 C65.7792492,53.5306775 67.536122,53.7801348 74.0082261,48.7176198 C78.3229622,45.3426098 81.3244533,42.9005077 83.0126994,41.3913135 L87.7706186,46.4071386 C81.2358167,53.0136799 76.6483525,57.5514898 74.0082261,60.0205682 C70.0480366,63.7241859 66.7294991,64.0536829 61.9675779,62.3901898 C58.7929638,61.2811945 48.6191689,56.3053893 31.4461932,47.4627742 C34.8886038,41.2495995 37.4102286,36.4184028 39.0110677,32.969184 C41.4123264,27.7953559 39.4111889,21.162692 40.3205295,18.2354601 C41.2298701,15.3082281 50.3168196,11.7260873 54.8806424,13.406033 C57.9231909,14.5259968 60.7494369,16.8436816 63.3593804,20.3590873 Z" id="Path-7" fill="#FFE0CD"></path>
                    <path d="M103,140.347515 L106.642319,92.5758017 L154.208222,86 C166.463191,107.713138 172.590675,121.699342 172.590675,127.958611 C172.590675,134.217881 172.590675,138.710676 172.590675,141.436996 L159.737874,140.766541 C159.866662,138.487191 160.83849,137.347515 162.653357,137.347515 C164.468225,137.347515 165.376368,137.142967 165.377789,136.733871 C166.082808,129.98103 166.082808,125.966115 165.377789,124.689126 C164.320261,122.773643 156.393108,119.908612 152.563101,111.137921 C148.733094,102.36723 148.382405,95.0174493 145.584542,93.2463728 C142.78668,91.4752962 133.868583,95.0507812 127.638442,97.5637713 C121.408302,100.076761 115.997768,100.760149 114.352958,102.979911 C113.295197,104.407417 112.427384,115.42799 111.749519,136.04163 L111.749521,136.04163 C111.704808,137.401342 110.750727,138.560754 109.425049,138.866361 L103,140.347515 Z" id="Path-12" fill="url(#linearGradient-2)"></path>
                    <g id="Group-4" transform="translate(78.000000, 30.000000)">
                        <path d="M139.773734,36.2862168 C134.801686,37.4616737 131.353679,41.4656584 129.429712,48.2981707 C126.543763,58.5469393 122.475263,67.7479298 112.661211,67.7479298 C106.11851,67.7479298 100.971023,63.0275912 97.21875,53.5869141 C90.7923177,43.5380859 89.5537109,39.8155924 93.5029297,42.4194336 C99.4267578,46.3251953 103.736895,56.3930664 112.661211,55.1918945 C121.585528,53.9907227 116.964355,44.0703125 122.82666,38.1733398 C126.734863,34.2420247 132.383888,33.6129837 139.773734,36.2862168 Z" id="Path-10" fill="url(#linearGradient-3)"></path>
                        <mask id="mask-5" fill="white">
                            <use xlink:href="#path-4"></use>
                        </mask>
                        <use id="Path-10" fill="url(#linearGradient-3)" xlink:href="#path-4"></use>
                        <path d="M11.5891665,21.2407519 C13.1760134,22.3370795 14.7744674,23.0149297 16.3845284,23.2743026 C18.7996199,23.6633619 23.6972613,22.6855503 26.1669365,20.5942055 C27.8133866,19.1999756 28.9051936,18.0019071 29.4423574,17 C27.5354626,22.0552236 24.626973,24.9604504 20.7168887,25.7156806 C16.8068044,26.4709108 13.6451632,26.6409519 11.2319653,26.2258039 L11.5891665,21.2407519 Z" id="Path-17" fill="url(#linearGradient-6)" mask="url(#mask-5)"></path>
                        <path d="M3,14.1096594 C3.79776669,14.717066 4.85205027,15.31088 6.16285073,15.8911016 C7.4736512,16.4713232 8.77133107,17.0651373 10.0558903,17.6725438 L3,15.420924 L3,14.1096594 Z" id="Path-2" fill="url(#linearGradient-7)" mask="url(#mask-5)"></path>
                        <g id="Group-6" mask="url(#mask-5)">
                            <g transform="translate(12.000000, 5.000000)" id="Path-15">
                                <path d="M3.87180327,3.46794034 C2.53314554,0.615526791 1.64164261,-0.477284027 1.1972945,0.189507884 C0.530772333,1.18969575 -0.265458222,3.11484091 0.0860307648,3.69791125 C0.320356756,4.0866248 1.58228093,4.00996784 3.87180327,3.46794034 Z" fill="url(#linearGradient-8)"></path>
                                <path d="M1.4372559,1.85423732 C1.75625059,0.836642779 1.7580964,-0.671653498 1.09157423,0.328534369 C0.425052066,1.32872224 -0.255750948,3.07129124 0.0957380384,3.65436157 C0.447227025,4.23743191 1.1182612,2.87183185 1.4372559,1.85423732 Z" fill="#212021"></path>
                            </g>
                        </g>
                        <path d="M0.79651273,4 C-0.0206497499,5.48550903 -0.42923099,6.53677845 -0.42923099,7.15380826 C-0.42923099,7.77083806 -0.286153993,8.02599437 0,7.9192772 C1.05544675,7.71419229 1.96622233,7.24303587 2.73232674,6.50580792 C3.49843115,5.76857998 3.9209889,5.17063226 4,4.71196478 L0.79651273,4 Z" id="Path-16" fill="#846A54" mask="url(#mask-5)"></path>
                    </g>
                    <g id="Group-2">
                        <path d="M46.6524968,17.2601754 C50.9972656,20.1888663 55.5955942,21.6532118 60.4474826,21.6532118 C65.299371,21.6532118 70.3419058,19.4291088 75.5750868,14.9809028 C71.4599248,15.2239583 68.6954572,14.5079572 67.281684,12.8328993 C65.1610243,10.3203125 65.1425141,6.48784722 61.6137918,4.36892361 C59.2613102,2.95630787 56.7715567,2.21614583 54.1445312,2.1484375 L55.2009549,0.4140625 C48.6238512,-0.13471828 44.2630665,0.677949175 42.1186008,2.85206487 C39.974135,5.02618056 38.9833572,7.36730361 39.1462674,9.87543403 L36.6028646,9.16666667 C35.8965405,11.6336483 35.8965405,14.3314845 36.6028646,17.2601754 C37.3091887,20.1888663 38.7403953,22.3282697 40.8964844,23.6783854 C40.8403603,20.8091581 41.6952865,19.5471139 43.461263,19.8922526 C44.9547857,20.1841435 45.9975374,21.4461878 46.5895182,23.6783854 L48.0029297,23.6783854 L46.6524968,17.2601754 Z" id="Path-6" fill="url(#linearGradient-9)"></path>
                        <path d="M61.3992378,68 C65.141488,74.4947495 67.8850648,77.8837971 69.6299684,78.1671426 C72.2473237,78.5921609 91.038551,80.1750439 92.7053278,80.1750439 C94.3721046,80.1750439 95.9941598,77.9791161 99.503009,76.6129859 C101.842242,75.7022324 104.437944,75.0129106 107.290114,74.5450205 C107.156929,75.3297701 106.662054,76.0190919 105.805488,76.6129859 C104.948923,77.2068798 104.309872,77.7249321 103.888336,78.1671426 C108.4149,77.7847785 110.918548,77.5935964 111.399277,77.5935964 C112.120372,77.5935964 112.978896,77.4215652 113.767889,78.1671426 C114.556883,78.91272 112.479124,83.1446226 108.658856,85.1100873 C104.838588,87.0755521 93.8925717,86.0936358 91.8340729,86.3061449 C89.7755742,86.5186541 71.7465725,88.5040314 69.1021231,88.5040314 C66.4576737,88.5040314 62.0775697,89.8952971 57.6599256,83.5559306 C54.7148296,79.3296862 52.4948544,76.0833996 51,73.8170706 L61.3992378,68 Z" id="Path-11" fill="#FFE0CD"></path>
                        <g id="Path-25" transform="translate(0.000000, 86.000000)">
                            <mask id="mask-11" fill="white">
                                <use xlink:href="#path-10"></use>
                            </mask>
                            <use id="Mask" fill="#524154" xlink:href="#path-10"></use>
                            <path d="M65,41 C67.7436746,41.7935668 70.2813533,42.1903502 72.6130362,42.1903502 C74.9447191,42.1903502 76.7403737,41.7935668 78,41 L78,44 C76.0967503,44.7935668 74.1965654,45.1903502 72.2994453,45.1903502 C70.4023252,45.1903502 67.9691767,44.7935668 65,44 L65,41 Z" id="Rectangle-2" fill="#E7E1E1" mask="url(#mask-11)"></path>
                            <path d="M13.9285259,28.2472346 C13.0459946,29.6428207 12.3382221,31.3157109 11.8052083,33.2659049 C11.2721945,35.216099 10.9792319,37.2047047 10.9263204,39.2317219 L13.0155494,39.8328497 C13.1808164,37.6248877 13.5200809,35.6734598 14.0333429,33.9785659 C14.5466049,32.2836721 15.299918,30.6271898 16.2932824,29.0091192 L13.9285259,28.2472346 Z" fill="#E7E1E1" mask="url(#mask-11)"></path>
                        </g>
                        <polygon id="Path-8" fill="#2199E0" points="61.2376302 65.4257812 64.0164063 48.7639815 49.9648438 43.2701823"></polygon>
                        <path d="M11.8109375,86.9640625 C18.5602136,91.8572917 25.0800052,95.0481771 31.3703125,96.5367188 C40.8057734,98.7695313 47.45625,96.39628 50.4304688,94.3039063 C52.4132813,92.9089904 54.2204946,90.9381165 55.8521089,88.3912843 C50.0700705,85.8367164 46.6972321,82.8284237 45.7335938,79.3664063 C44.7699554,75.9043888 44.7699554,72.6405867 45.7335938,69.575 L50.4304688,78.0679688 L64.0164063,67.7109375 C61.7665271,62.7121692 59.5070188,57.6920069 57.2378813,52.6504505 C53.834175,45.0881159 50.9562092,40.4658386 48.8658854,38.0761719 C47.4723362,36.4830607 45.2357911,36.1529826 42.15625,37.0859375 C40.1514221,34.3086186 38.5172323,33.1395902 37.2536805,33.5788523 C35.3583529,34.2377455 32.803179,38.0811523 30.5313099,41.0944665 C25.8128773,47.3528024 21.9093417,53.9618084 18.8207031,60.9214844 C14.2449219,71.2321615 11.9083333,79.9130208 11.8109375,86.9640625 Z" id="Path-8" fill="url(#linearGradient-12)"></path>
                        <path d="M100.941278,30.3879029 C98.1962104,32.057276 96.960252,33.1485616 97.2334029,33.6617597 C99.0160937,37.0110934 104.289792,37.1036605 102.776751,40.5462815 C100.509187,45.7056678 95.1434458,43.8933895 96.2177982,49.986345 C97.2921507,56.0793006 108.441703,52.9454191 109.74373,44.4068146 C110.611748,38.7144115 107.677598,34.041441 100.941278,30.3879029 Z" id="Path-13" fill="url(#linearGradient-13)" transform="translate(102.984805, 41.772930) rotate(10.000000) translate(-102.984805, -41.772930) "></path>
                        <path d="M104.088546,29.3790245 C109.150362,31.0358127 109.202656,35.2936467 108.862128,36.9843885 C108.5216,38.6751303 106.60648,38.6481311 105.347513,35.9758899 C104.508202,34.1943958 102.781883,33.3036487 100.168558,33.3036487 C101.5369,35.1457907 102.166522,36.4248687 102.057424,37.1408826 C101.893778,38.2149036 100.479128,38.8198669 98.7038361,35.402447 C97.5203083,33.1241671 94.8545645,31.9850271 90.7066047,31.9850271 C96.2533547,29.1431666 100.714002,28.2744991 104.088546,29.3790245 Z" id="Path-14" fill="#FFE0CD" transform="translate(99.844489, 33.527407) rotate(-8.000000) translate(-99.844489, -33.527407) "></path>
                        <path d="M118.758724,85 C118.464716,90.7394329 117.645408,95.1858204 116.300799,98.3391624 C114.95619,101.492504 114.250808,103.154716 114.184654,103.325797 C117.942208,102.843422 121.516629,101.595051 124.907916,99.5806842 C127.284614,98.1689657 131.883392,95.8813707 138.685425,94.9425049 C141.164673,94.6003011 144.396647,94.6003011 148.381348,94.9425049 C148.076809,94.2787445 147.382437,93.8200256 146.298233,93.5663482 C142.929594,92.7781688 136.20681,93.0099135 132.133789,94.2941895 C126.094401,96.1984863 122.071199,96.6333564 120.064183,95.5987997 C120.275849,93.7505484 120.275849,91.9671825 120.064183,90.248702 C119.852517,88.5302215 119.417364,86.7806542 118.758724,85 Z" id="Path-18" fill="url(#linearGradient-14)"></path>
                        <path d="M40.4439988,35 C37.0319775,36.7478751 34.8672337,38.9741922 33.9497673,41.6789513 C33.0323008,44.3837104 32.7795325,46.8279744 33.1914622,49.0117433 C33.8302732,44.3042282 35.1592756,41.1655402 37.1784695,39.5956795 C39.1976633,38.0258188 40.8033369,37.1349205 41.9954903,36.9229847 C41.7754738,36.6245125 41.531999,36.3098522 41.2650659,35.9790039 C40.9981328,35.6481556 40.7244438,35.321821 40.4439988,35 Z" id="Path-20" fill="url(#linearGradient-15)"></path>
                        <path d="M41.0501282,72.6436103 C36.9813968,74.7592776 34.3952965,77.4436659 33.2918272,80.6967752 C32.1753232,83.988312 31.8677186,86.9628412 32.3690134,89.6203628 C33.1464098,83.8915867 34.7637295,80.0719834 37.2209727,78.1615529 C39.6782159,76.2511224 41.6322286,75.1669502 43.0830109,74.9090365 C42.6748224,74.5417005 42.2986065,74.1771419 41.9543634,73.8153607 C41.7359601,73.5858305 41.0836253,72.6261924 41.0501282,72.6436103 Z" id="Path-20-Copy" fill="url(#linearGradient-15)" transform="translate(37.609513, 81.131869) scale(-1, 1) rotate(-115.000000) translate(-37.609513, -81.131869) "></path>
                        <path d="M45.8695679,69.7306808 L42.661377,58.6767578 C42.6395475,63.2738663 43.024391,66.9585073 43.8159074,69.7306808 C44.6074239,72.5028543 45.0154504,74.742872 45.039987,76.4507338 L45.8695679,69.7306808 Z" id="Path-19" fill="url(#linearGradient-15)"></path>
                    </g>
                </g>
                <path d="M13.5104191,133.316406 C10.6601587,123.65332 8.7444686,115.834635 7.76334881,109.860352 C6.29166912,100.898926 6.79469065,98 8.57145428,98 C10.3482179,98 13.8024113,102.977051 14.558759,113.887695 C15.0629907,121.161458 15.4332707,127.637695 15.6695988,133.316406 C16.223798,128.004557 16.9588241,124.759684 17.8746769,123.581787 C19.2484562,121.814941 21.7301457,122.699219 20.6363957,128.403809 C19.907229,132.206868 18.2516301,136.299479 15.6695988,140.681641 C12.0575339,136.537176 9.69148576,133.744207 8.57145428,132.302734 C7.41287049,130.811645 5.86201291,129.09814 5.43327069,128.403809 C3.85758709,125.852051 6.89664959,123.019775 9.46207928,126.122803 C11.1723657,128.191488 12.5218124,130.589355 13.5104191,133.316406 Z" id="Path-21" fill="url(#linearGradient-1)"></path>
                <path d="M240.567151,132.94027 C240.732113,132.184985 240.932392,131.468048 241.167988,130.78946 C242.388488,127.27406 244.048646,127.578395 244.244882,128.998743 C244.375706,129.945641 243.744094,131.981423 242.350044,135.106089 L241.258476,136.99674 C241.280205,137.187939 241.301528,137.38378 241.322445,137.584262 L241.322445,142.256293 C239.684571,139.476531 238.634365,136.880443 238.171829,134.468026 C237.478024,130.849401 239.052248,130.288473 239.923686,131.409246 C240.156613,131.708819 240.371102,132.21916 240.567151,132.94027 Z" id="Combined-Shape" fill="url(#linearGradient-1)"></path>
                <path d="M2.41830284,141.451963 L1.99075602,142.192496 C1.98911219,142.006802 1.98883648,141.822594 1.98992889,141.639872 C1.6668304,141.697364 1.4203508,141.51241 1.25049008,141.085011 C0.754361827,139.836664 0.394808096,138.631002 0.171828888,137.468026 C-0.521975726,133.849401 1.05224836,133.288473 1.92368554,134.409246 C2.15661297,134.708819 2.37110156,135.21916 2.56715131,135.94027 C2.73211271,135.184985 2.93239168,134.468048 3.16798822,133.78946 C4.38848764,130.27406 6.04864648,130.578395 6.24488236,131.998743 C6.37570628,132.945641 5.74409361,134.981423 4.35004435,138.106089 L3.25847638,139.99674 C3.28020539,140.187939 3.30152833,140.38378 3.3224452,140.584262 C2.98473354,140.988458 2.68335276,141.277692 2.41830284,141.451963 Z" id="Combined-Shape-Copy" fill="url(#linearGradient-1)" transform="translate(3.130859, 136.596248) scale(-1, 1) translate(-3.130859, -136.596248) "></path>
                <path d="M227.833348,137.717865 C225.908724,133.478498 224.537439,128.868477 223.719494,123.887803 C222.492576,116.416792 222.911937,114 224.3932,114 C225.874462,114 228.754173,118.149295 229.384729,127.245341 C229.805099,133.309372 229.887998,136.800213 229.633425,137.717865 C230.095452,133.289454 230.708233,130.58425 231.471766,129.602254 C232.617066,128.129261 234.686015,128.86647 233.774171,133.622304 C233.166276,136.79286 231.786027,140.20481 229.633425,143.858155 L227.833348,137.717865 Z" id="Path-21-Copy" fill="url(#linearGradient-1)" transform="translate(228.500000, 128.929077) scale(-1, 1) translate(-228.500000, -128.929077) "></path>
            </g>
        </g>
    </g>
</svg>