<?xml version="1.0" encoding="UTF-8"?>
<svg width="164px" height="136px" viewBox="0 0 164 136" version="1.1" xmlns="http://www.w3.org/2000/svg" xmlns:xlink="http://www.w3.org/1999/xlink">
    <!-- Generator: Sketch 51.2 (57519) - http://www.bohemiancoding.com/sketch -->
    <title>已领养_ico@2x</title>
    <desc>Created with Sketch.</desc>
    <defs>
        <rect id="path-1" x="0" y="0" width="169" height="140"></rect>
        <path d="M22.0752247,105.964274 C23.3538709,103.849804 24.2730708,102.239026 24.8328245,101.131939 C28.6183488,93.6448928 30.7509881,85.1799875 30.7509881,76.2169776 C30.7509881,61.2877539 24.8342262,47.7404641 15.2177185,37.7921242 C14.6761904,37.2319098 13.8379463,36.4177119 12.702986,35.3495305 L84.9594434,11.8420056 L101.427846,96.1980834 L22.0752247,105.964274 Z" id="path-3"></path>
    </defs>
    <g id="Page-1" stroke="none" stroke-width="1" fill="none" fill-rule="evenodd">
        <g id="切图" transform="translate(-654.000000, -622.000000)">
            <g id="已领养_ico" transform="translate(651.000000, 620.000000)">
                <mask id="mask-2" fill="white">
                    <use xlink:href="#path-1"></use>
                </mask>
                <g id="Mask"></g>
                <g id="Group-11-Copy-2" mask="url(#mask-2)">
                    <g transform="translate(-12.000000, -25.000000)">
                        <g id="Group-23-Copy-2" opacity="0.604062" transform="translate(83.000000, 0.000000)">
                            <mask id="mask-4" fill="white">
                                <use xlink:href="#path-3"></use>
                            </mask>
                            <g id="Mask" transform="translate(57.065416, 58.903140) rotate(-23.000000) translate(-57.065416, -58.903140) "></g>
                            <g mask="url(#mask-4)" stroke="#FF5998" stroke-linecap="square" stroke-width="1.5">
                                <g transform="translate(29.596571, 82.643565) rotate(-27.000000) translate(-29.596571, -82.643565) translate(-34.403429, 44.643565)">
                                    <path d="M0.245050826,65.438903 C7.00714111,71.9834689 17.1028863,75.3493016 30.5322865,75.536401 C50.6763868,75.8170502 71.4382967,57.9006439 91.3360861,56.6302831 C104.601279,55.783376 114.862711,59.1633486 122.120382,66.7702009" id="Path-6"></path>
                                    <path d="M1.94206602,55.775241 C8.70415631,62.3198069 18.7999015,65.6856396 32.2293017,65.872739 C52.373402,66.1533882 73.1353119,48.2369819 93.0331013,46.9666212 C106.298294,46.119714 116.559726,49.4996866 123.817398,57.1065389" id="Path-6-Copy"></path>
                                    <path d="M2.97637807,46.5133209 C9.73846835,53.0578868 19.8342136,56.4237195 33.2636138,56.6108189 C53.407714,56.891468 74.1696239,38.9750618 94.0674133,37.704701 C107.332606,36.8577938 117.594038,40.2377664 124.85171,47.8446188" id="Path-6-Copy-2"></path>
                                    <path d="M3.75580097,37.5006908 C10.5178912,44.0452567 20.6136365,47.4110894 34.0430366,47.5981888 C54.1871369,47.878838 74.9490468,29.9624317 94.8468362,28.6920709 C108.112029,27.8451638 118.373461,31.2251364 125.631133,38.8319887" id="Path-6-Copy-3"></path>
                                    <path d="M4.74792699,28.3261853 C11.5100173,34.8707512 21.6057625,38.2365839 35.0351627,38.4236833 C55.1792629,38.7043325 75.9411729,20.7879262 95.8389623,19.5175655 C109.104155,18.6706583 119.365587,22.0506309 126.623259,29.6574832" id="Path-6-Copy-4"></path>
                                    <path d="M4.14654453,19.0569045 C10.9086348,25.6014704 21.00438,28.9673031 34.4337802,29.1544025 C54.5778805,29.4350517 75.3397904,11.5186454 95.2375798,10.2482846 C108.502773,9.40137746 118.764205,12.7813501 126.021876,20.3882024" id="Path-6-Copy-5"></path>
                                    <path d="M5.23723705,9.45210485 C11.9993273,15.9966708 22.0950726,19.3625034 35.5244727,19.5496029 C55.668573,19.830252 76.4304829,1.91384574 96.3282723,0.643484986 C109.593465,-0.203422181 119.854897,3.17655042 127.112569,10.7834028" id="Path-6-Copy-6"></path>
                                </g>
                            </g>
                        </g>
                        <g id="Group" transform="translate(71.416830, 106.735087) rotate(-20.000000) translate(-71.416830, -106.735087) translate(15.916830, 50.735087)">
                            <circle id="Oval-15-Copy" stroke="#FF5998" stroke-width="1.5" opacity="0.604062" stroke-linecap="round" cx="55.4150241" cy="56.0000021" r="55.292489"></circle>
                            <circle id="Oval-15-Copy" stroke="#FF5998" stroke-width="1.5" opacity="0.604062" stroke-linecap="round" cx="55.4150241" cy="56.0000021" r="50.0424889"></circle>
                            <path d="M89.3316474,55.8370383 C89.3316474,37.1054045 74.1466579,21.920415 55.4150241,21.920415 C36.6833904,21.920415 21.4984009,37.1054045 21.4984009,55.8370383 C21.4984009,67.2252342 27.1111166,77.3025102 35.7212025,83.4535208" id="Oval-15-Copy-2" stroke="#FF5998" stroke-width="1.5" opacity="0.604062" transform="translate(55.415024, 52.686968) rotate(2.000000) translate(-55.415024, -52.686968) "></path>
                            <path d="M53.9623773,61.349842 C52.8037858,62.945909 50.9406977,63.9811458 48.8397679,63.9811458 C45.3259673,63.9811458 42.477469,61.0853303 42.477469,57.5131609 C42.477469,54.139181 45.0186573,51.3685866 48.2614312,51.0715386 C48.2613952,51.0627552 48.2613771,51.0539676 48.2613771,51.0451759 C48.2613771,47.4730065 51.2393526,44.577191 54.9128714,44.577191 C58.5863903,44.577191 61.5643657,47.4730065 61.5643657,51.0451759 C61.5643657,51.0471773 61.5643648,51.0491784 61.5643629,51.0511793 C65.1037158,51.1984108 67.9266646,54.0352136 67.9266646,57.5131609 C67.9266646,61.0853303 64.9486892,63.9811458 61.2751703,63.9811458 C59.1569183,63.9811458 57.269934,63.0182892 56.051824,61.5181095 C57.5191469,61.1059345 58.6724117,59.6154296 58.6724117,58.2182358 C58.6724117,56.5771438 57.0813702,55.749165 55.259158,55.749165 C53.4369459,55.749165 51.731722,56.4867628 51.731722,58.2182358 C51.731722,59.5248484 52.7027768,60.801832 53.9623773,61.349842 Z M55.0758144,68.0971362 C54.1274138,68.0971362 53.2144924,67.8133467 52.5851114,67.3151941 C51.8921323,66.7667039 51.5104928,66.0648069 51.8685044,65.5590573 C52.2149893,65.0695908 52.6765392,65.08154 53.3647282,65.3067606 C53.8054736,65.4510015 54.337584,65.6125488 55.0758144,65.6125488 C55.7659562,65.6125488 56.3405016,65.4785591 56.7700684,65.3688005 C57.614969,65.15292 58.1868968,65.0794226 58.5400499,65.6125488 C58.8932031,66.1456751 58.4950294,66.7202579 57.8727825,67.2140381 C57.1856211,67.7593308 56.1215253,68.0971362 55.0758144,68.0971362 Z M45.0802277,48.1051828 C43.6427638,48.1051828 42.477469,46.920531 42.477469,45.459189 C42.477469,43.9978469 43.6427638,42.8131951 45.0802277,42.8131951 C46.5176916,42.8131951 47.6829863,43.9978469 47.6829863,45.459189 C47.6829863,46.920531 46.5176916,48.1051828 45.0802277,48.1051828 Z M65.9022968,48.1051828 C64.4648329,48.1051828 63.2995382,46.920531 63.2995382,45.459189 C63.2995382,43.9978469 64.4648329,42.8131951 65.9022968,42.8131951 C67.3397607,42.8131951 68.5050554,43.9978469 68.5050554,45.459189 C68.5050554,46.920531 67.3397607,48.1051828 65.9022968,48.1051828 Z" id="Combined-Shape-Copy-3" fill="#FE69A3" opacity="0.604208" transform="translate(55.491262, 55.455166) rotate(-30.000000) translate(-55.491262, -55.455166) "></path>
                            <text id="已-copy" opacity="0.650279018" transform="translate(46.374624, 86.354835) rotate(7.000000) translate(-46.374624, -86.354835) " font-family="PingFangSC-Regular, PingFang SC" font-size="19.4400003" font-weight="normal" fill="#F3126A">
                                <tspan x="36.6546238" y="93.3548349">已</tspan>
                            </text>
                            <text id="领-copy" opacity="0.650279018" transform="translate(68.890232, 82.514660) rotate(-25.000000) translate(-68.890232, -82.514660) " font-family="PingFangSC-Regular, PingFang SC" font-size="19.4400003" font-weight="normal" fill="#F3126A">
                                <tspan x="59.1702315" y="89.5146601">领</tspan>
                            </text>
                            <text id="养-copy" opacity="0.650279018" transform="translate(85.836262, 70.470679) rotate(-50.000000) translate(-85.836262, -70.470679) " font-family="PingFangSC-Regular, PingFang SC" font-size="19.4400003" font-weight="normal" fill="#F3126A">
                                <tspan x="76.1162615" y="77.4706786">养</tspan>
                            </text>
                        </g>
                    </g>
                </g>
            </g>
        </g>
    </g>
</svg>