<?xml version="1.0" encoding="UTF-8"?>
<svg width="9px" height="13px" viewBox="0 0 9 13" version="1.1" xmlns="http://www.w3.org/2000/svg" xmlns:xlink="http://www.w3.org/1999/xlink">
    <!-- Generator: Sketch 51.2 (57519) - http://www.bohemiancoding.com/sketch -->
    <title>女@2x</title>
    <desc>Created with Sketch.</desc>
    <defs></defs>
    <g id="Page-2" stroke="none" stroke-width="1" fill="none" fill-rule="evenodd">
        <g id="切图" transform="translate(-513.000000, -418.000000)" fill="#FF5178" fill-rule="nonzero">
            <path d="M517.089242,426.546597 C514.801403,426.348548 513,424.5129 513,422.282148 C513,419.919463 515.017115,418 517.5,418 C519.982885,418 522,419.919463 522,422.282148 C522,424.496185 520.225492,426.321017 517.962103,426.54187 L517.962103,430.584698 C517.962103,430.815034 517.767726,431 517.525672,431 C517.283619,431 517.089242,430.815034 517.089242,430.584698 L517.089242,426.546597 Z M517.5,418.834094 C515.501222,418.834094 513.876528,420.380134 513.876528,422.282148 C513.876528,424.184161 515.501222,425.730201 517.5,425.730201 C519.498778,425.730201 521.123472,424.184161 521.123472,422.282148 C521.123472,420.380134 519.498778,418.834094 517.5,418.834094 Z M519.817848,428.818792 L515.229829,428.818792 C514.987775,428.818792 514.793399,428.633826 514.793399,428.40349 C514.793399,428.173154 514.987775,427.988188 515.229829,427.988188 L519.817848,427.988188 C520.059902,427.988188 520.254279,428.173154 520.254279,428.40349 C520.254279,428.633826 520.059902,428.818792 519.817848,428.818792 Z" id="女"></path>
        </g>
    </g>
</svg>