<?xml version="1.0" encoding="UTF-8"?>
<svg width="14px" height="16px" viewBox="0 0 14 16" version="1.1" xmlns="http://www.w3.org/2000/svg" xmlns:xlink="http://www.w3.org/1999/xlink">
    <!-- Generator: Sketch 51.2 (57519) - http://www.bohemiancoding.com/sketch -->
    <title>Combined Shape</title>
    <desc>Created with Sketch.</desc>
    <defs></defs>
    <g id="Page-2" stroke="none" stroke-width="1" fill="none" fill-rule="evenodd">
        <g id="我发布的送养3" transform="translate(-171.000000, -192.000000)" fill-rule="nonzero" stroke="#B7B7B7">
            <g id="Mask-Copy-2" transform="translate(170.000000, 128.000000)">
                <path d="M11.8545886,74.6459903 L11.8985428,74.5957317 C14.2611806,72.2330939 14.1203846,68.4559777 11.7536763,66.0892695 C9.50241943,63.8380126 5.67356943,63.9927016 3.20297785,66.4632932 C0.840340056,68.825931 0.981136034,72.6030472 3.39601232,75.0256179 L6.23319202,78.8542715 C6.72642262,79.5198653 7.66583539,79.6595932 8.33142916,79.1663626 C8.44461655,79.0824864 8.54542357,78.9830832 8.63087871,78.8710831 L11.8545886,74.6459903 Z M7.48258,72.9629508 C6.19685164,72.9629508 5.15775639,71.9074932 5.15775639,70.6093922 C5.15775639,69.3112911 6.19685164,68.2558335 7.48258,68.2558335 C8.76830836,68.2558335 9.80740361,69.3112911 9.80740361,70.6093922 C9.80740361,71.9074932 8.76830836,72.9629508 7.48258,72.9629508 Z" id="Combined-Shape"></path>
            </g>
        </g>
    </g>
</svg>