<?xml version="1.0" encoding="UTF-8"?>
<svg width="9px" height="13px" viewBox="0 0 9 13" version="1.1" xmlns="http://www.w3.org/2000/svg" xmlns:xlink="http://www.w3.org/1999/xlink">
    <!-- Generator: Sketch 51.2 (57519) - http://www.bohemiancoding.com/sketch -->
    <title>男@2x</title>
    <desc>Created with Sketch.</desc>
    <defs></defs>
    <g id="Page-2" stroke="none" stroke-width="1" fill="none" fill-rule="evenodd">
        <g id="切图" transform="translate(-472.000000, -419.000000)" fill="#22C9FF" fill-rule="nonzero">
            <path d="M476.914523,420.367995 L476.914523,423.028718 C479.20397,423.23804 481,425.163839 481,427.504929 C481,429.985612 478.979668,432 476.5,432 C474.016598,432 472,429.981881 472,427.504929 C472,425.182632 473.772636,423.26366 476.040664,423.033082 L476.040664,420.367995 L474.278008,421.642944 C474.106224,421.81454 473.829876,421.81454 473.658091,421.642944 C473.486307,421.471348 473.486307,421.195302 473.658091,421.023706 L476.167635,419.123102 C476.33195,418.958966 476.623237,418.958966 476.787552,419.123102 L479.297095,421.023706 C479.46888,421.195302 479.46888,421.471348 479.297095,421.642944 C479.211203,421.728742 479.09917,421.769776 478.987137,421.769776 C478.875104,421.769776 478.763071,421.728742 478.677178,421.642944 L476.914523,420.367995 Z M476.5,423.88276 C474.502075,423.88276 472.873859,425.509193 472.873859,427.504929 C472.873859,429.500666 474.502075,431.127098 476.5,431.127098 C478.497925,431.127098 480.126141,429.500666 480.126141,427.504929 C480.126141,425.509193 478.497925,423.88276 476.5,423.88276 Z" id="男"></path>
        </g>
    </g>
</svg>