<?xml version="1.0" encoding="UTF-8"?>
<svg width="22px" height="21px" viewBox="0 0 22 21" version="1.1" xmlns="http://www.w3.org/2000/svg" xmlns:xlink="http://www.w3.org/1999/xlink">
    <!-- Generator: Sketch 51.2 (57519) - http://www.bohemiancoding.com/sketch -->
    <title>我的收藏</title>
    <desc>Created with Sketch.</desc>
    <defs></defs>
    <g id="Page-2" stroke="none" stroke-width="1" fill="none" fill-rule="evenodd">
        <g id="切图" transform="translate(-467.000000, -666.000000)" stroke="#A935F7" stroke-width="1.6">
            <g id="我的收藏" transform="translate(468.000000, 667.000000)">
                <path d="M14.3785633,6.32966377e-16 C12.6567845,6.32966377e-16 11.0604333,0.86659065 10,2.29190422 C8.95096921,0.86659065 7.34321551,6.32966377e-16 5.62143672,6.32966377e-16 C2.51995439,6.32966377e-16 0,2.75940707 0,6.14595211 C0,8.16419612 0.900798176,9.58950969 1.63055872,10.7297605 C3.74002281,14.0478905 9.05359179,18.1641961 9.28164196,18.3352338 C9.49828962,18.5062714 9.74914481,18.5860889 10,18.5860889 C10.2508552,18.5860889 10.5017104,18.5062714 10.718358,18.3352338 C10.9464082,18.1641961 16.2485747,14.036488 18.3694413,10.7297605 C19.0992018,9.58950969 20,8.16419612 20,6.14595211 C20,2.75940707 17.4800456,0 14.3785633,6.32966377e-16 Z" id="Shape"></path>
                <path d="M11,12.8764817 C11.6857358,12.2708286 13.0030692,10.9599144 13.6635975,10" id="Shape" stroke-linecap="round" stroke-linejoin="round"></path>
            </g>
        </g>
    </g>
</svg>