<?xml version="1.0" encoding="UTF-8"?>
<svg width="345px" height="160px" viewBox="0 0 345 160" version="1.1" xmlns="http://www.w3.org/2000/svg" xmlns:xlink="http://www.w3.org/1999/xlink">
    <!-- Generator: Sketch 51.2 (57519) - http://www.bohemiancoding.com/sketch -->
    <title>送养攻略</title>
    <desc>Created with Sketch.</desc>
    <defs>
        <linearGradient x1="159.26404%" y1="69.6508789%" x2="-122.287138%" y2="57.5366211%" id="linearGradient-1">
            <stop stop-color="#FFC447" offset="0%"></stop>
            <stop stop-color="#FEB009" offset="100%"></stop>
        </linearGradient>
        <rect id="path-2" x="0" y="0" width="345" height="160" rx="8"></rect>
        <linearGradient x1="50%" y1="129.347544%" x2="50%" y2="5.01692297%" id="linearGradient-4">
            <stop stop-color="#704301" offset="0%"></stop>
            <stop stop-color="#C26D20" offset="100%"></stop>
        </linearGradient>
        <linearGradient x1="50%" y1="5.01692297%" x2="50%" y2="92.7043403%" id="linearGradient-5">
            <stop stop-color="#FBB354" offset="0%"></stop>
            <stop stop-color="#C26D20" offset="100%"></stop>
        </linearGradient>
        <path d="M68.379697,49.2021433 C67.136523,52.9671068 66.4005554,57.9014349 67.5172447,61.8213371 C68.0324965,63.6300199 68.9623414,65.1445976 70.3067795,66.3650701 L70.3067806,66.365069 C71.5891088,67.5291586 72.2877221,69.2029647 72.2134566,70.9332695 L71.7306772,82.1814964 C67.1296188,82.4615405 64.8290897,82.2950857 64.8290897,81.6821322 C64.8290897,80.7627019 65.0412002,79.6346673 66.7938659,78.9942094 C68.5465316,78.3537516 67.5172447,73.2243734 67.5172447,71.9534593 C67.5172447,70.6825451 63.7866568,66.7487121 58.9471962,63.4917713 C54.1077355,60.2348305 52.7448274,48.4697659 50.0872277,47.5499784 C47.429628,46.6301909 36.9666233,48.4427537 34.1388885,49.5605661 C31.3111537,50.6783786 27.9190088,51.2025233 26.7515125,52.8158065 C26.105165,53.7089498 22.7310047,57.5887001 22.7310047,61.3078564 C22.7310047,65.0270128 23.0280564,67.6031398 22.7310047,70.6468252 C22.0655389,77.4653976 20.9577319,80.0118695 18.8320074,81.1027553 C16.7062829,82.1936412 11.4639188,83.1062847 11.4639188,81.694277 C11.4639188,80.2822692 13.5402574,79.1413754 15.8446948,77.9751206 C18.1491322,76.8088657 16.4078359,50.2970249 15.9406242,49.5605661 C15.4734125,48.8241073 9.64445781,43.6865136 8.91539436,37.2508586 C8.1863309,30.8152036 10.5536554,20.1967479 8.91539436,16.209335 C7.86298611,13.6478469 4.46267078,13.088637 2.41666019,12.1349366 C2.41666019,11.4713221 2.54807231,10.5955312 2.19779923,10.2935351 C1.54882958,9.73401078 1.00686146,9.0971823 0.661202283,8.30273438 C-0.827093733,4.88209997 0.661202283,3.05619495 0.661202283,3.05619495 C0.661202283,3.05619495 3.38901933,4.33454411 5.99876129,4.00444586 C8.60850325,3.67434761 12.070454,-1.23043165 17.387737,0.555087301 C22.70502,2.34060625 23.2106517,6.40207831 22.7310047,11.3057067 C22.2513577,16.209335 20.8550519,27.8397356 40.137217,28.9988465 C59.419382,30.1579573 63.7262568,28.1744311 68.0366846,31.0316662 C69.7126568,32.1426108 71.3502577,34.4755903 71.3502577,37.546056 C71.3502577,41.9017034 69.1395024,46.9010657 68.379697,49.2021433 Z" id="path-6"></path>
        <linearGradient x1="48.1380039%" y1="50%" x2="51.9814928%" y2="74.9177082%" id="linearGradient-8">
            <stop stop-color="#DC9338" offset="0%"></stop>
            <stop stop-color="#EEA348" offset="100%"></stop>
        </linearGradient>
        <linearGradient x1="-48.5430587%" y1="11.9113605%" x2="100%" y2="50%" id="linearGradient-9">
            <stop stop-color="#846A54" offset="0%"></stop>
            <stop stop-color="#DFA058" offset="100%"></stop>
        </linearGradient>
        <linearGradient x1="25.7928352%" y1="69.2878586%" x2="85.1120877%" y2="86.3984909%" id="linearGradient-10">
            <stop stop-color="#FFFFFF" offset="0%"></stop>
            <stop stop-color="#E3E5E5" offset="100%"></stop>
        </linearGradient>
        <linearGradient x1="81.9426568%" y1="50%" x2="0%" y2="50%" id="linearGradient-11">
            <stop stop-color="#6D4325" offset="0%"></stop>
            <stop stop-color="#3B2010" offset="100%"></stop>
        </linearGradient>
        <path d="M8.61687627,0.592664639 C8.68433477,6.14115632 11.1820048,11.1625175 16.1098863,15.6567481 C21.0377678,20.1509787 24.0695159,23.3753906 25.2051305,25.3299837 C17.5522588,23.0194243 12.8232776,21.5926647 11.018187,21.049705 C10.6545419,20.9403229 10.5272365,21.7055255 10.2365112,21.6182328 C9.50833698,21.3995923 8.0797193,20.7639184 7.31943138,20.5663383 C6.5593973,20.3688241 5.03513514,19.9603375 2.74664488,19.3408786 L2.74663807,19.3409038 C1.96939244,19.1305154 1.16875689,19.590044 0.958368522,20.3672896 C0.948253107,20.4046594 0.939630163,20.4424172 0.932520194,20.4804734 C0.562924482,22.4587353 0.309215595,23.8319948 0.171393531,24.6002518 C0.0819930761,25.0985939 0.778807911,25.7786212 0.706040396,26.2476995 C0.143205188,29.8758817 0.18899608,31.8927302 0.706040396,34.4591338 C1.22308471,37.0255374 2.67067454,39.7999738 5.64377541,40.8698563 C8.61687627,41.9397389 10.5889005,38.6237888 9.6028884,37.0255374 C8.61687627,35.4272861 6.41689533,36.0902475 6.41689533,34.8917733 C6.41689533,33.6932991 7.66525661,27.9853252 8.61687627,27.9853252 C8.78934965,27.9853252 9.25907686,28.0357865 9.94619577,28.1407554 C10.1736734,28.1755064 10.3993041,29.0300127 10.6715366,29.0768587 C14.1140581,29.6692511 20.9289201,30.4266517 25.2051305,33.2735188 C30.8409473,37.0255374 37.5912506,38.7655254 41.3081952,37.6744966 C45.0251397,36.5834679 44.2247332,28.7110869 40.4003478,23.8066013 C37.8507574,20.5369442 36.1231513,17.5783837 35.2175294,14.9309197 C37.1151583,15.1007912 38.9866823,15.1007912 40.8321011,14.9309197 C42.67752,14.7610482 44.5074266,14.4710025 46.321821,14.0607828 L48.3757883,30.2856999 L49.181512,30.2856999 C49.181512,31.9938848 49.181512,32.9898245 49.181512,33.2735188 C49.181512,34.5578124 49.181512,35.8588296 49.181512,37.1765703 L49.1815167,37.1765703 C49.1815167,38.3151795 50.0551403,39.2632984 51.1899479,39.3562637 C53.538068,39.5486256 56.2524102,39.6448065 59.3329745,39.6448065 C65.335739,39.6448065 68.0001604,39.3170407 68.0001604,38.4957687 C68.0001604,38.1308992 68.0001604,37.4756679 68.0001604,36.5300745 L68.0001683,36.5300745 C68.0001683,35.724839 67.3473959,35.0720666 66.5421604,35.0720666 C66.4975641,35.0720666 66.4529912,35.0741127 66.4085825,35.0781985 C63.6309175,35.3337539 61.5365308,35.127399 60.1254224,34.4591338 C58.8224921,33.8420991 57.4845102,34.0146321 56.3372769,32.2510723 C56.2797484,32.1626378 56.1915272,31.5075137 56.0726131,30.2856999 L56.5870303,30.018039 L55.7278847,8.32953004 C55.6685832,6.83248597 54.8471842,5.46995198 53.5510166,4.71854836 C52.0300184,3.83680773 50.268005,3.09418701 48.2649763,2.49068621 C45.266017,1.58711733 41.0491563,0.77498668 35.6143944,0.0542942534 C32.0159975,1.61580789 27.8630361,2.50728143 23.15551,2.72871487 C18.447984,2.95014831 13.6017728,2.23813156 8.61687627,0.592664639 Z" id="path-12"></path>
        <linearGradient x1="100%" y1="50%" x2="-2.22044605e-14%" y2="50%" id="linearGradient-14">
            <stop stop-color="#00CAEF" offset="0%"></stop>
            <stop stop-color="#009ADB" offset="100%"></stop>
        </linearGradient>
        <linearGradient x1="50%" y1="0%" x2="50%" y2="100%" id="linearGradient-15">
            <stop stop-color="#DD8E39" offset="0%"></stop>
            <stop stop-color="#883E09" offset="100%"></stop>
        </linearGradient>
        <linearGradient x1="-23.6643254%" y1="86.1846806%" x2="94.5839662%" y2="50%" id="linearGradient-16">
            <stop stop-color="#AE6318" offset="0%"></stop>
            <stop stop-color="#DC8D38" offset="100%"></stop>
        </linearGradient>
        <linearGradient x1="50%" y1="0%" x2="50%" y2="100%" id="linearGradient-17">
            <stop stop-color="#009ED9" offset="0%"></stop>
            <stop stop-color="#18AFE3" offset="100%"></stop>
        </linearGradient>
    </defs>
    <g id="Page-2" stroke="none" stroke-width="1" fill="none" fill-rule="evenodd">
        <g id="我要送养" transform="translate(-15.000000, -84.000000)">
            <g id="送养攻略" transform="translate(15.000000, 84.000000)">
                <mask id="mask-3" fill="white">
                    <use xlink:href="#path-2"></use>
                </mask>
                <use id="Mask" fill="url(#linearGradient-1)" xlink:href="#path-2"></use>
                <text mask="url(#mask-3)" font-family="PingFangSC-Semibold, PingFang SC" font-size="28" font-weight="500" line-spacing="28" fill="#FFFFFF">
                    <tspan x="24" y="78">送养攻略</tspan>
                </text>
                <text id="助您高效送养" mask="url(#mask-3)" font-family="PingFangSC-Regular, PingFang SC" font-size="20" font-weight="normal" line-spacing="20" fill="#FFFFFF">
                    <tspan x="24" y="111">助您高效送养</tspan>
                </text>
                <g id="Group-7" opacity="0.901373" mask="url(#mask-3)">
                    <g transform="translate(154.000000, 25.000000)" id="Group-5">
                        <g transform="translate(19.646341, 0.000000)">
                            <path d="M46.1029638,14.8935605 C45.6905361,17.3408414 45.2048766,19.4658663 44.6459853,21.2686351 C43.8076483,23.9727883 41.4139713,25.5406962 38.470247,25.5406962 C36.5077641,25.5406962 35.8433931,25.5406962 36.477134,25.5406962 L33.5097899,32.7901559 C38.7887352,35.8704553 42.5008003,37.7021751 44.6459853,38.2853154 C47.8637627,39.1600258 49.1421376,39.3425147 53.8515141,35.6390641 C56.9910985,33.1700971 59.1751103,31.3835929 60.4035496,30.2795515 L63.8656127,33.9488464 C59.1106146,38.7818195 55.7725817,42.1014254 53.8515141,43.907664 C50.9699128,46.6170219 48.5552046,46.8580633 45.0902294,45.6411456 C42.780246,44.8298671 35.3773627,41.1898485 22.8815796,34.7210898 C25.3864231,30.1758815 27.2212639,26.6416504 28.3861021,24.1183964 C30.1333594,20.3335154 28.6772472,15.4814324 29.3389219,13.3400345 C30.0005966,11.1986367 36.6126451,8.57814441 39.9334755,9.80709796 C42.1473625,10.6264003 44.2038586,12.3218879 46.1029638,14.8935605 Z" id="Path-7" fill="#FFE0CD"></path>
                            <path d="M74.9471545,102.67033 L77.5974595,67.7232375 L112.208421,62.9127517 C121.125655,78.7968595 125.584272,89.0283777 125.584272,93.6073063 C125.584272,98.1862349 125.584272,101.47291 125.584272,103.467332 L116.23203,102.976866 C116.325742,101.309421 117.032885,100.475699 118.353459,100.475699 C119.674033,100.475699 120.334837,100.326063 120.335871,100.026791 C120.848872,95.0867936 120.848872,92.1497083 120.335871,91.2155354 C119.566368,89.8142761 113.798237,87.7183804 111.011362,81.3022373 C108.224487,74.8860941 107.969311,69.5094093 105.933468,68.2137895 C103.897625,66.9181697 97.4084402,69.533793 92.8751267,71.3721548 C88.3418133,73.2105167 84.4048799,73.7104447 83.2080464,75.3342971 C82.4382459,76.3787551 81.8067058,84.4433138 81.3134261,99.5279731 L81.3134167,99.5279728 C81.281029,100.518399 80.5867403,101.363276 79.6213725,101.587014 L74.9471545,102.67033 Z" id="Path-12" fill="url(#linearGradient-4)"></path>
                            <g id="Group-4" transform="translate(56.756098, 21.946309)">
                                <path d="M101.705278,26.5449505 C98.0874055,27.4048486 95.5784899,30.333938 94.1785306,35.3322189 C92.0785918,42.8296401 89.1181794,49.5605661 81.9770602,49.5605661 C77.216314,49.5605661 73.4707848,46.1074325 70.7404726,39.2011653 C66.0643287,31.8500092 65.1630661,29.1268428 68.0366846,31.0316662 C72.3471124,33.8889013 75.4833503,41.2539882 81.9770602,40.3752785 C88.4707701,39.4965689 85.1082099,32.2393561 89.3738706,27.9254634 C92.2176444,25.0495349 96.3281134,24.5893639 101.705278,26.5449505 Z" id="Path-10" fill="url(#linearGradient-5)"></path>
                                <mask id="mask-7" fill="white">
                                    <use xlink:href="#path-6"></use>
                                </mask>
                                <use id="Path-10" fill="url(#linearGradient-5)" xlink:href="#path-6"></use>
                                <path d="M8.43276752,15.5385366 C9.58742439,16.3405481 10.7505271,16.8364251 11.9220755,17.0261677 C13.6793982,17.3107816 17.2431292,16.5954697 19.0401692,15.0655597 C20.2381959,14.0456198 21.0326408,13.1691804 21.423504,12.4362416 C20.0359667,16.1343582 17.9196267,18.2596584 15.074484,18.8121422 C12.2293414,19.364626 9.92879765,19.4890185 8.17285278,19.1853196 L8.43276752,15.5385366 Z" id="Path-17" fill="url(#linearGradient-8)" mask="url(#mask-7)"></path>
                                <path d="M2.18292683,10.3218314 C2.7634156,10.7661758 3.5305569,11.2005767 4.48435074,11.6250341 C5.43814457,12.0494915 6.38239131,12.4838924 7.31709095,12.9282368 L2.18292683,11.2810786 L2.18292683,10.3218314 Z" id="Path-2" fill="url(#linearGradient-9)" mask="url(#mask-7)"></path>
                                <g id="Group-6" mask="url(#mask-7)">
                                    <g transform="translate(8.731707, 3.657718)" id="Path-15">
                                        <path d="M2.81728775,2.53694964 C1.84322379,0.450284699 1.19452857,-0.349154087 0.871202096,0.138633284 C0.386212389,0.870314341 -0.193158625,2.278642 0.0625996216,2.70518339 C0.233105119,2.98954432 1.15133449,2.9334664 2.81728775,2.53694964 Z" fill="url(#linearGradient-10)"></path>
                                        <path d="M1.04580815,1.35645549 C1.27792218,0.612040691 1.27926527,-0.491343834 0.79427556,0.240337223 C0.309285853,0.97201828 -0.186095202,2.24678352 0.0696630442,2.67332491 C0.32542129,3.0998663 0.813694125,2.10087028 1.04580815,1.35645549 Z" fill="#212021"></path>
                                    </g>
                                </g>
                                <path d="M0.579576336,2.9261745 C-0.015025631,4.01288916 -0.312326614,4.7819386 -0.312326614,5.23332282 C-0.312326614,5.68470704 -0.208217743,5.87136501 5.55111512e-17,5.79329674 C0.767987679,5.64326819 1.4307065,5.29859671 1.98815645,4.75928231 C2.54560641,4.2199679 2.85307729,3.78254307 2.91056911,3.44700779 L0.579576336,2.9261745 Z" id="Path-16" fill="#846A54" mask="url(#mask-7)"></path>
                            </g>
                            <g id="Group-2">
                                <path d="M33.9463289,12.6265713 C37.1077664,14.7690365 40.4537048,15.840269 43.9841439,15.840269 C47.514583,15.840269 51.1837444,14.2132407 54.9916282,10.9591839 C51.9972623,11.1369897 49.9857188,10.6132036 48.9569977,9.38782567 C47.4139161,7.54975881 47.4004473,4.74614327 44.8327997,3.19605821 C43.1210347,2.16266817 41.3093848,1.62120735 39.39785,1.57167576 L40.1665485,0.302904782 C35.3807698,-0.0985522987 32.2076785,0.495949397 30.6472745,2.08640987 C29.0868706,3.67687034 28.3659388,5.38950398 28.4844791,7.2243108 L26.6337917,6.70581655 C26.1198404,8.51052121 26.1198404,10.4841061 26.6337917,12.6265713 C27.147743,14.7690365 28.1891494,16.3341033 29.758011,17.3217719 C29.7171727,15.222807 30.3392532,14.2995665 31.6242524,14.5520506 C32.7110026,14.7655815 33.4697529,15.688822 33.9005031,17.3217719 L34.928961,17.3217719 L33.9463289,12.6265713 Z" id="Path-6" fill="url(#linearGradient-11)"></path>
                                <path d="M44.6766812,49.7449664 C47.3997006,54.4961591 49.3960431,56.9753952 50.6657087,57.1826748 C52.5702071,57.4935942 66.2434985,58.6515422 67.4563158,58.6515422 C68.669133,58.6515422 69.849409,57.0451252 72.4025959,56.0457413 C74.1047206,55.3794854 75.993463,54.8752165 78.0688231,54.5329345 C77.9719117,55.107013 77.6118195,55.611282 76.9885464,56.0457413 C76.3652733,56.4802007 75.9002729,56.8591785 75.5935452,57.1826748 C78.8872649,56.9029588 80.7090245,56.7631007 81.0588238,56.7631007 C81.5835229,56.7631007 82.2082211,56.6372524 82.782326,57.1826748 C83.3564308,57.7280972 81.844566,60.8239185 79.0647774,62.2617417 C76.2849889,63.699565 68.3202046,62.9812503 66.8223539,63.1367101 C65.3245032,63.2921698 52.2058394,64.7445599 50.2816262,64.7445599 C48.3574129,64.7445599 45.1702641,65.7623314 41.9557995,61.1248083 C39.8128232,58.0331262 38.1974754,55.6583259 37.1097561,54.0004074 L44.6766812,49.7449664 Z" id="Path-11" fill="#FFE0CD"></path>
                                <g id="Path-25" transform="translate(0.000000, 62.912752)">
                                    <mask id="mask-13" fill="white">
                                        <use xlink:href="#path-12"></use>
                                    </mask>
                                    <use id="Mask" fill="#524154" xlink:href="#path-12"></use>
                                    <path d="M47.296748,29.9932886 C49.2931616,30.5738173 51.1396839,30.8640817 52.836315,30.8640817 C54.532946,30.8640817 55.8395402,30.5738173 56.7560976,29.9932886 L56.7560976,32.1879195 C55.3712126,32.7684482 53.9885578,33.0587125 52.608133,33.0587125 C51.2277082,33.0587125 49.4572465,32.7684482 47.296748,32.1879195 L47.296748,29.9932886 Z" id="Rectangle-2" fill="#E7E1E1" mask="url(#mask-13)"></path>
                                    <path d="M10.1349843,20.6640844 C9.49281722,21.6850165 8.977812,22.9088086 8.58996863,24.3354607 C8.20212526,25.7621127 7.98895328,27.2168645 7.95045268,28.699716 L9.47066399,29.1394672 C9.59091925,27.5242467 9.83778244,26.096692 10.2112536,24.8568033 C10.5847247,23.6169145 11.1328672,22.4051255 11.8556811,21.2214362 L10.1349843,20.6640844 Z" fill="#E7E1E1" mask="url(#mask-13)"></path>
                                </g>
                                <polygon id="Path-8" fill="#2199E0" points="44.5590886 47.8618131 46.5810436 35.6729797 36.3565326 31.654026"></polygon>
                                <path d="M8.59413745,63.6180055 C13.505196,67.1976161 18.2492721,69.5318879 22.8263656,70.6208211 C29.6920059,72.2542208 34.5311738,70.518084 36.6953411,68.9874214 C38.1381193,67.9669796 39.4531242,66.5251993 40.6403557,64.6620805 C36.4331001,62.7933026 33.9788803,60.5926053 33.2776963,58.0599885 C32.5765123,55.5273717 32.5765123,53.139758 33.2776963,50.8971477 L36.6953411,57.1101248 L46.5810436,49.5335046 C44.9439364,45.8766876 43.2998226,42.2042198 41.6487022,38.5161014 C39.1720217,32.9839237 37.0778921,29.6025263 35.5568841,27.8543808 C34.5428788,26.6889504 32.915474,26.4474839 30.6746697,27.1299811 C29.2158722,25.0982512 28.0267666,24.2430559 27.1073529,24.5643953 C25.7282324,25.0464044 23.8689798,27.8580242 22.2158718,30.062395 C18.7825408,34.6406407 15.9421633,39.4754169 13.6947393,44.5667235 C10.3652074,52.1094336 8.66500678,58.4598609 8.59413745,63.6180055 Z" id="Path-8" fill="url(#linearGradient-14)"></path>
                                <path d="M73.4491416,22.2300766 C71.4517141,23.4512958 70.5523785,24.2496189 70.7511346,24.6250457 C72.0482959,27.0752294 75.885662,27.1429463 74.7847094,29.6613737 C73.134734,33.4356899 69.2303935,32.1099292 70.0121377,36.567192 C70.793882,41.0244548 78.9067675,38.7318838 79.8541775,32.4855221 C80.4857842,28.3212809 78.3507722,24.9027991 73.4491416,22.2300766 Z" id="Path-13" fill="url(#linearGradient-15)" transform="translate(74.936098, 30.558720) rotate(10.000000) translate(-74.936098, -30.558720) "></path>
                                <path d="M75.7392264,21.4920381 C79.4224179,22.7040509 79.4604689,25.8188422 79.2126866,27.0556936 C78.9649044,28.292545 77.5713818,28.2727939 76.6553041,26.3179329 C76.0445857,25.0146922 74.7884434,24.3630719 72.8868774,24.3630719 C73.8825409,25.7106791 74.3406806,26.6463804 74.2612965,27.1701759 C74.1422203,27.9558691 73.1128614,28.3984261 71.821084,25.8984344 C70.9598991,24.2317732 69.0201912,23.3984427 66.0019603,23.3984427 C70.0380101,21.3194977 73.2837655,20.6840295 75.7392264,21.4920381 Z" id="Path-14" fill="#FFE0CD" transform="translate(72.651071, 24.526761) rotate(-8.000000) translate(-72.651071, -24.526761) "></path>
                                <path d="M86.4138686,62.1812081 C86.1999357,66.3798536 85.6037721,69.63258 84.6253779,71.9393872 C83.6469838,74.2461945 83.1337182,75.4621747 83.0855813,75.587328 C85.8197369,75.2344496 88.4206366,74.3212118 90.8882804,72.8476146 C92.6176665,71.814881 95.9639318,70.1414054 100.913378,69.4545841 C102.717384,69.2042471 105.069105,69.2042471 107.968542,69.4545841 C107.746946,68.9690144 107.241692,68.6334416 106.452779,68.4478655 C104.001615,67.8712778 99.1098333,68.0408092 96.1461311,68.9803131 C91.751617,70.3733893 88.8241652,70.6915158 87.3637757,69.9346924 C87.5177928,68.5826159 87.5177928,67.278006 87.3637757,66.0208625 C87.2097586,64.7637191 86.8931229,63.4838343 86.4138686,62.1812081 Z" id="Path-18" fill="url(#linearGradient-16)"></path>
                                <path d="M29.4287634,25.6040268 C26.9460324,26.8826738 25.3708733,28.5113218 24.7032859,30.4899711 C24.0356986,32.4686204 23.8517737,34.2567061 24.1515111,35.8542283 C24.616337,32.4104756 25.5833753,30.1143885 27.0526262,28.9659669 C28.521877,27.8175453 29.690233,27.1658144 30.5576941,27.0107741 C30.3976009,26.7924286 30.2204383,26.5622409 30.0262065,26.3202109 C29.8319747,26.0781809 29.632827,25.8394529 29.4287634,25.6040268 Z" id="Path-20" fill="url(#linearGradient-17)"></path>
                                <path d="M29.8698088,53.14197 C26.9092278,54.6896728 25.0274718,56.65342 24.2245409,59.0332114 C23.4121254,61.4411142 23.1882993,63.617112 23.5530626,65.561205 C24.1187291,61.3703554 25.2955593,58.5761489 27.0835533,57.1785857 C28.8715473,55.7810224 30.2933696,54.9879032 31.3490202,54.799228 C31.0520049,54.5305057 30.7782543,54.2638152 30.5277685,53.9991565 C30.368849,53.8312451 29.8941826,53.129228 29.8698088,53.14197 Z" id="Path-20-Copy" fill="url(#linearGradient-17)" transform="translate(27.366272, 59.351502) scale(-1, 1) rotate(-115.000000) translate(-27.366272, -59.351502) "></path>
                                <path d="M33.3766368,51.0110349 L31.0422214,42.9246081 C31.0263374,46.2875935 31.3063658,48.9830691 31.8823066,51.0110349 C32.4582474,53.0390008 32.7551448,54.6776714 32.7729987,55.9270469 L33.3766368,51.0110349 Z" id="Path-19" fill="url(#linearGradient-17)"></path>
                            </g>
                        </g>
                    </g>
                </g>
                <path d="M147.127554,133.399039 C215.556513,133.399039 229.526495,147.822356 270.23307,147.822356 C310.939644,147.822356 330.420804,137.798078 365.800502,133.399039 C389.386968,130.466346 405.806484,128.315778 415.059049,126.947333 L415.059049,177.671983 L-12,174.1387 C48.4657306,146.978926 101.508249,133.399039 147.127554,133.399039 Z" id="Path-4" fill="#FAB41E" mask="url(#mask-3)" transform="translate(201.529524, 152.309658) scale(-1, 1) translate(-201.529524, -152.309658) "></path>
            </g>
        </g>
    </g>
</svg>